# xmcd
#
# Track frame offsets:
# 150
# 17046
# 39097
# 52600
# 63623
# 74799
# 90345
# 108235
# 123198
# 142051
# 158724
# 177149
# 193842
# 210021
# 222745
# 237616
# 254595
#
# Disc length: 3587 seconds
#
#
# Revision: 0
# Processed by: cddbd v1.5.2PL0 Copyright (c) Steve Scherf et al.
# Submitted via: FreeRIP 2.95 
#
DISCID=f20e0111
DTITLE=teodoro e sampaio  - teodoro e sampaio - ao vivo
DYEAR=1900
DGENRE=
TTITLE0=o garrafao
TTITLE1=de parede e meia - besta de paixao
TTITLE2=e mentira dela
TTITLE3=vou beber de novo
TTITLE4=garanhao da madrugada
TTITLE5=se a casa cair
TTITLE6=to querendo mais
TTITLE7=doidao por voce
TTITLE8=paixao proibida
TTITLE9=a gostosona - a gauchona
TTITLE10=quando a saudade aperta
TTITLE11=virus da paixao
TTITLE12=vestido de seda
TTITLE13=aqui pra ela
TTITLE14=mulher chorona
TTITLE15=pinga ni mim
TTITLE16=o trem ta feio
EXTD=
EXTT0=
EXTT1=
EXTT2=
EXTT3=
EXTT4=
EXTT5=
EXTT6=
EXTT7=
EXTT8=
EXTT9=
EXTT10=
EXTT11=
EXTT12=
EXTT13=
EXTT14=
EXTT15=
EXTT16=
PLAYORDER=
